<?xml version="1.0" standalone="no"?><!DOCTYPE svg PUBLIC "-//W3C//DTD SVG 1.1//EN" "http://www.w3.org/Graphics/SVG/1.1/DTD/svg11.dtd"><svg t="1545353699779" class="icon" style="" viewBox="0 0 1024 1024" version="1.1" xmlns="http://www.w3.org/2000/svg" p-id="13515" xmlns:xlink="http://www.w3.org/1999/xlink" width="200" height="200"><defs><style type="text/css"></style></defs><path d="M886.9 171.1L526.5 97.4 256.3 435.3l368.1 91 3 0.7zM649.9 549.8v142.9l1.6 18.2L902.1 362l-2.9-154.3z" fill="#2E97FF" p-id="13516"></path><path d="M929.9 160.4v-0.2-0.3-0.7-0.2-0.4c0-0.3-0.1-0.6-0.1-0.9 0-0.1 0-0.3-0.1-0.4-0.1-0.3-0.1-0.6-0.2-1 0-0.1 0-0.2-0.1-0.2-0.1-0.4-0.2-0.7-0.3-1.1v-0.1c0-0.1-0.1-0.2-0.1-0.2-0.1-0.3-0.3-0.6-0.4-0.9 0-0.1-0.1-0.2-0.1-0.3-0.2-0.3-0.3-0.6-0.5-1 0 0 0-0.1-0.1-0.1-0.4-0.7-0.9-1.4-1.4-2.1 0-0.1-0.1-0.1-0.1-0.2-0.2-0.3-0.4-0.5-0.7-0.8l-0.2-0.2-0.7-0.7-0.2-0.2-0.1-0.1c-0.1-0.1-0.2-0.1-0.2-0.2-0.3-0.2-0.6-0.5-0.9-0.7-0.1-0.1-0.3-0.2-0.4-0.3-0.3-0.2-0.5-0.3-0.8-0.5-0.1 0-0.2-0.1-0.2-0.1-0.1-0.1-0.2-0.1-0.3-0.2-0.2-0.1-0.3-0.2-0.5-0.3-0.2-0.1-0.5-0.2-0.7-0.3-0.1-0.1-0.3-0.1-0.5-0.2-0.3-0.1-0.6-0.2-0.8-0.3-0.1 0-0.3-0.1-0.4-0.1-0.3-0.1-0.6-0.2-1-0.2-0.1 0-0.2 0-0.2-0.1L523.3 64.5c-5.8-1.2-11.8 1-15.5 5.6L230.7 416.8l-14.4 18.1L71 616.5s0 0.1-0.1 0.1c-0.3 0.4-0.6 0.9-0.9 1.3-0.1 0.1-0.1 0.2-0.2 0.3-0.2 0.4-0.4 0.8-0.6 1.1-0.1 0.1-0.1 0.3-0.2 0.4-0.2 0.4-0.3 0.8-0.5 1.1-0.1 0.2-0.1 0.3-0.2 0.5-0.1 0.4-0.2 0.8-0.3 1.1 0 0.2-0.1 0.3-0.1 0.5-0.1 0.4-0.1 0.8-0.2 1.1 0 0.2-0.1 0.4-0.1 0.5 0 0.4-0.1 0.8-0.1 1.2V845c0 7.3 5 13.7 12.2 15.4l419.9 99.1c0.5 0.1 1.1 0.2 1.6 0.3h0.4c0.5 0.1 1.1 0.1 1.6 0.1h0.1c0.5 0 1.1 0 1.6-0.1 0.2 0 0.3 0 0.5-0.1 0.4-0.1 0.9-0.1 1.3-0.2 0.1 0 0.2 0 0.3-0.1 0.5-0.1 1-0.3 1.6-0.5 0.1 0 0.2-0.1 0.4-0.1 0.4-0.2 0.8-0.3 1.2-0.5 0.1-0.1 0.3-0.1 0.4-0.2 0.5-0.3 1-0.5 1.4-0.8 0.1 0 0.1-0.1 0.2-0.1 0.3-0.2 0.6-0.4 0.9-0.7l0.2-0.2c0.2-0.2 0.4-0.4 0.7-0.6 0.2-0.2 0.5-0.4 0.7-0.7l0.6-0.6c0.2-0.3 0.4-0.5 0.6-0.8 0.1-0.1 0.2-0.2 0.2-0.3l130.7-181.9c0.1-0.1 0.2-0.2 0.3-0.4l283.7-395c2-2.8 3-6.1 3-9.5l-3.9-206.1z m-433.2 546l-385.4-89.7 116.8-146.1L606 554.7l0.1 1.6-109.4 150.1zM256.3 435.3L526.5 97.4l360.4 73.7L627.4 527l-3.1-0.7-368-91z m395.2 275.6l-1.6-18.2V549.8l249.3-342.1 2.9 154.3-250.6 348.9zM99.1 646.2l388.4 90.4V924.2L99.1 832.5V646.2z m420 248.9V729.2L610.4 604l7.9 90.1v63l-99.2 138z" fill="" p-id="13517"></path></svg>